<?xml version="1.0" encoding="UTF-8"?>
<!DOCTYPE svg PUBLIC "-//W3C//DTD SVG 1.1//EN" "http://www.w3.org/Graphics/SVG/1.1/DTD/svg11.dtd">
<!-- Creator: CorelDRAW -->
<svg xmlns="http://www.w3.org/2000/svg" xml:space="preserve" width="300px" height="54px" version="1.1" style="shape-rendering:geometricPrecision; text-rendering:geometricPrecision; image-rendering:optimizeQuality; fill-rule:evenodd; clip-rule:evenodd"
viewBox="0 0 300 54"
 xmlns:xlink="http://www.w3.org/1999/xlink"
 xmlns:xodm="http://www.corel.com/coreldraw/odm/2003">
 <defs>
  <style type="text/css">
   <![CDATA[
    .fil0 {fill:white;fill-rule:nonzero}
    .fil1 {fill:url(#id0);fill-rule:nonzero}
   ]]>
  </style>
  <linearGradient id="id0" gradientUnits="userSpaceOnUse" x1="163.68" y1="-16.96" x2="62.32" y2="41.22">
   <stop offset="0" style="stop-opacity:1; stop-color:lime"/>
   <stop offset="1" style="stop-opacity:1; stop-color:#0FFF67"/>
  </linearGradient>
 </defs>
 <g id="Camada_x0020_1">
  <metadata id="CorelCorpID_0Corel-Layer"/>
 </g>
 <g id="Camada_x0020_1_0">
  <metadata id="CorelCorpID_1Corel-Layer"/>
  <g id="_1949542703504">
   <path class="fil0" d="M155.41 12.88l0 28.24 -7.01 0 -0.02 -28.24 7.03 0zm10.04 28.24l-7.01 0 -0.02 -28.24 15.06 0c8.04,0 12.05,4.71 12.05,14.12l0 14.12 -7.02 0 0 -14.12c0,-6.72 -2.35,-10.09 -7.04,-10.09l-6.02 0 0 24.21 0 0 0 0 0 0zm30.12 -8.07l0 8.07 -7.02 0 0 -14.12c0,-9.41 4.01,-14.12 12.05,-14.12l15.05 0 0 28.24 -7.02 0 0 -8.07 -13.06 0 0 0 0 0zm13.06 -4.03l0 -12.11 -6.02 0c-4.69,0 -7.04,3.37 -7.04,10.09l0 2.02 13.06 0 0 0 0 0zm17.07 12.1l-7.01 0 -0.02 -28.24 15.06 0c8.03,0 12.05,4.71 12.05,14.12l0 14.12 -7.03 0 0 -14.12c0,-6.72 -2.34,-10.09 -7.03,-10.09l-6.02 0 0 24.21 0 0 0 0 0 0zm47.19 -24.21l-10.04 0c-4.69,0 -7.03,3.37 -7.03,10.09 0,6.73 2.34,10.09 7.03,10.09l10.04 0 0 4.03 -12.05 0c-8.03,0 -12.05,-4.71 -12.05,-14.12 0,-9.41 4.02,-14.12 12.05,-14.12l12.05 0 0 4.03 0 0zm10.12 12.11c0.44,5.37 2.75,8.07 6.95,8.07l10.04 0 0 4.03 -12.05 0c-8.03,0 -12.05,-4.71 -12.05,-14.12 0,-9.41 4.02,-14.12 12.05,-14.12l12.05 0 0 4.03 -10.04 0c-4.2,0 -6.51,2.69 -6.95,8.07l14.98 0 0 4.04 -14.98 0 0 0 0 0 0 0zm-154.71 0l0 12.1 -7.02 0 0 -14.12c0,-9.41 4.01,-14.12 12.05,-14.12l12.04 0 0 4.03 -10.04 0c-4.19,0 -6.5,2.69 -6.95,8.07l14.99 0 0 4.04 -15.07 0 0 0 0 0 0 0z"/>
   <path class="fil1" d="M74.17 29.85c0,2.49 0.35,4.51 1.33,6.47 0.2,0.39 0.36,0.76 0.56,1.12l1.5 2.08c0.89,1 1.57,1.74 2.74,2.52 5.96,3.96 13.26,3.29 18.15,-1.62 2.62,-2.63 4.28,-6.17 4.28,-10.15 0,-3.03 -1.06,-5.94 -2.59,-8.17 -1.37,-1.99 -3.6,-3.92 -5.84,-4.88 -5.18,-2.21 -10.57,-1.58 -14.89,1.96 -0.19,0.15 -0.25,0.23 -0.45,0.39 -0.26,0.2 -0.29,0.21 -0.51,0.44 -2.51,2.52 -4.28,6.16 -4.28,9.84l0 0 0 0 0 0zm20.79 3.48c0,1.94 -1.1,3.63 -2.59,4.36 -0.88,0.43 -1.41,0.49 -2.35,0.49 0,1.01 0.21,3.16 -1.57,3.16 -1.88,0 -1.58,-2.15 -1.58,-3.16 -1.38,0 -2.79,-0.23 -3.75,-1.18 -0.88,-0.86 -0.33,-2.62 1.13,-2.62 0.95,0 1.13,0.74 2.41,0.74l3.47 0c1.72,0 2.25,-2.17 0.99,-3 -0.53,-0.36 -0.93,-0.27 -1.73,-0.27 -1.24,0 -2.78,0.09 -3.84,-0.15 -3.6,-0.83 -4.76,-5.34 -2.33,-7.95 0.88,-0.93 2.2,-1.39 3.65,-1.39 0,-1.02 -0.3,-3.16 1.58,-3.16 1.78,0 1.57,2.16 1.57,3.16 1.7,0 2.64,0.49 3.8,1.46 1.04,0.86 0.86,2.86 -1.07,2.86 -0.94,0 -1.15,-1.26 -2.83,-1.26 -1.49,0 -3.35,-0.22 -4.2,0.31 -0.75,0.47 -0.97,1.66 -0.24,2.46 0.49,0.55 0.93,0.5 1.92,0.5 2.72,-0.01 5.52,-0.33 7.04,2.63 0.2,0.4 0.52,1.41 0.52,2.01l0 0 0 0 0 0zm-30.13 -4.22c0,2.79 -0.05,4.48 0.74,7.26 1.24,4.35 3.11,7.63 6.27,10.8 1.11,1.12 1.83,1.63 3.1,2.58 1.1,0.83 1.71,1.04 2.61,1.59 1.18,0.73 3.76,1.63 5.17,1.98 1.51,0.39 3.06,0.61 4.6,0.68l2.14 0c3.07,-0.14 6.11,-0.88 8.89,-2.18 0.97,-0.45 3.95,-1.76 3.95,-2.78 0,-0.86 -0.81,-1.54 -1.56,-2.54 -0.24,-0.33 -1.6,-1.98 -1.69,-2.31 -0.36,0.08 -1.35,0.85 -2.03,1.23 -6.03,3.38 -13.3,3 -18.87,-1.11 -2.02,-1.48 -3.67,-3.43 -4.92,-5.61 -1.26,-2.19 -1.98,-4.8 -2.1,-7.38 -0.06,-1.21 -0.2,-0.26 -0.02,-2.02 0.24,-2.3 0.32,-3.6 1.38,-5.99 1.38,-3.08 1.88,-3.12 3.41,-5.13l2.24 -1.96c3.23,-2.2 5.89,-3.35 10.31,-3.35l0 -5.28c0,-0.45 -0.55,-1.05 -0.84,-1.05 -1.64,0 -3.52,0.33 -4.89,0.67 -1.88,0.47 -2.51,0.78 -4.2,1.48 -0.7,0.29 -1.23,0.63 -1.86,0.98 -1.7,0.95 -3.46,2.33 -4.82,3.7 -0.98,0.97 -1.84,1.9 -2.62,3.06 -2.43,3.58 -4.39,7.94 -4.39,12.68l0 0 0 0 0 0zm30.44 -27.85l0 12.77c0,0.34 0.22,0.3 0.52,0.42 1.09,0.48 2.18,1.22 3.13,1.93 1.55,1.16 2.85,2.55 3.93,4.16 0.34,0.51 0.59,1.19 0.92,1.19l11.97 0c0.92,0 0.95,-0.84 0.95,-1.37 0,-1.93 -0.59,-4.64 -1.26,-6.33 -1.23,-3.09 -2.54,-5.35 -4.91,-7.73 -3.63,-3.65 -8.94,-6.3 -14.2,-6.3 -0.69,0 -1.05,0.56 -1.05,1.26l0 0zm10.5 27.64c0,3.08 -0.02,4.87 -1.2,7.77 -0.22,0.56 -0.06,0.52 0.58,1.39l2.99 3.85c0.34,0.44 0.59,1.01 1.3,1.01 0.82,0 2.8,-2.33 3.35,-3.07l1.54 -2.35c1.04,-1.76 2.36,-5.34 2.36,-8.08 0,-1.19 -1.32,-1.05 -1.89,-1.05l-9.14 0c0.06,0.24 0.11,0.24 0.11,0.53l0 0 0 0 0 0z"/>
   <path class="fil0" d="M8.5 28.03l6.08 0c4.05,0 6.08,-1.62 6.08,-4.88 0,-3.25 -2.03,-4.89 -6.08,-4.89l-6.08 0 0 9.77 0 0zm10.95 -14.65c6.47,0 9.72,3.26 9.72,9.77 0,6.52 -3.25,9.77 -9.72,9.77l-10.95 0 0 14.65 -8.47 0 -0.03 -34.19 19.45 0 0 0 0 0zm21.86 14.65l6.08 0c4.05,0 6.07,-1.62 6.07,-4.88 0,-3.25 -2.02,-4.89 -6.07,-4.89l-6.08 0 0 9.77 0 0zm10.94 -14.65c6.48,0 9.73,3.26 9.73,9.77 0,3.27 -0.82,5.72 -2.46,7.35 1.64,1.62 2.46,4.07 2.46,7.35l0 9.69 -8.52 0.03 0 -9.72c0,-3.26 -2.02,-4.88 -6.07,-4.88l-6.08 0 0 14.6 -8.48 0 -0.02 -34.19 19.44 0 0 0 0 0 0 0z"/>
  </g>
 </g>
</svg>
