<?xml version="1.0" encoding="UTF-8"?>
<!DOCTYPE svg PUBLIC "-//W3C//DTD SVG 1.1//EN" "http://www.w3.org/Graphics/SVG/1.1/DTD/svg11.dtd">
<!-- Creator: CorelDRAW -->
<svg xmlns="http://www.w3.org/2000/svg" xml:space="preserve" width="300px" height="65px" version="1.1" style="shape-rendering:geometricPrecision; text-rendering:geometricPrecision; image-rendering:optimizeQuality; fill-rule:evenodd; clip-rule:evenodd"
viewBox="0 0 300 65"
 xmlns:xlink="http://www.w3.org/1999/xlink"
 xmlns:xodm="http://www.corel.com/coreldraw/odm/2003">
 <defs>
  <style type="text/css">
   <![CDATA[
    .fil0 {fill:url(#id0);fill-rule:nonzero}
    .fil1 {fill:url(#id1);fill-rule:nonzero}
   ]]>
  </style>
  <linearGradient id="id0" gradientUnits="userSpaceOnUse" x1="15.07" y1="73.57" x2="15.07" y2="-22.27">
   <stop offset="0" style="stop-opacity:1; stop-color:#42B86E"/>
   <stop offset="1" style="stop-opacity:1; stop-color:#0FFF67"/>
  </linearGradient>
  <linearGradient id="id1" gradientUnits="objectBoundingBox" xlink:href="#id0" x1="21.9513%" y1="192.89%" x2="21.9513%" y2="0%">
  </linearGradient>
 </defs>
 <g id="Camada_x0020_1_0">
  <metadata id="CorelCorpID_0Corel-Layer"/>
  <path class="fil0" d="M12.75 35.71c0,2.79 0.4,5.07 1.51,7.27 0.22,0.44 0.41,0.86 0.63,1.26l1.7 2.34c1.01,1.12 1.78,1.96 3.11,2.83 6.76,4.46 15.04,3.7 20.59,-1.82 2.97,-2.96 4.85,-6.94 4.85,-11.41 0,-3.41 -1.2,-6.68 -2.94,-9.19 -1.55,-2.24 -4.08,-4.41 -6.62,-5.49 -5.88,-2.48 -11.99,-1.77 -16.89,2.21 -0.21,0.16 -0.28,0.25 -0.51,0.43 -0.29,0.23 -0.33,0.24 -0.58,0.5 -2.84,2.83 -4.85,6.93 -4.85,11.07l0 0 0 0 0 0 0 0zm23.58 3.91c0,2.18 -1.25,4.08 -2.94,4.9 -1,0.49 -1.6,0.55 -2.66,0.55 0,1.14 0.23,3.56 -1.78,3.56 -2.14,0 -1.8,-2.42 -1.8,-3.56 -1.56,0 -3.16,-0.26 -4.25,-1.33 -1,-0.96 -0.38,-2.94 1.28,-2.94 1.08,0 1.28,0.83 2.74,0.83l3.93 0c1.95,0 2.55,-2.44 1.12,-3.37 -0.6,-0.41 -1.05,-0.31 -1.96,-0.31 -1.41,0 -3.15,0.1 -4.35,-0.17 -4.09,-0.93 -5.4,-6 -2.65,-8.93 1,-1.05 2.5,-1.57 4.14,-1.57 0,-1.15 -0.34,-3.55 1.79,-3.55 2.02,0 1.79,2.43 1.79,3.55 1.92,0 2.99,0.55 4.31,1.64 1.18,0.97 0.97,3.22 -1.22,3.22 -1.06,0 -1.3,-1.42 -3.21,-1.42 -1.69,0 -3.8,-0.24 -4.76,0.35 -0.85,0.53 -1.1,1.87 -0.27,2.77 0.55,0.62 1.05,0.56 2.17,0.56 3.09,-0.01 6.26,-0.37 7.99,2.96 0.22,0.45 0.59,1.58 0.59,2.26l0 0 0 0 0 0 0 0zm-34.18 -4.75c0,3.14 -0.05,5.04 0.84,8.17 1.41,4.89 3.53,8.58 7.12,12.14 1.25,1.26 2.07,1.83 3.51,2.9 1.25,0.94 1.94,1.17 2.96,1.79 1.34,0.82 4.27,1.83 5.87,2.23 1.71,0.44 3.47,0.68 5.21,0.76l2.43 0c3.48,-0.15 6.93,-0.99 10.08,-2.45 1.1,-0.51 4.48,-1.98 4.48,-3.12 0,-0.97 -0.91,-1.74 -1.77,-2.86 -0.27,-0.37 -1.81,-2.23 -1.91,-2.6 -0.41,0.09 -1.53,0.96 -2.3,1.38 -6.84,3.8 -15.09,3.38 -21.41,-1.24 -2.29,-1.67 -4.16,-3.86 -5.58,-6.31 -1.43,-2.47 -2.24,-5.4 -2.38,-8.3 -0.07,-1.36 -0.23,-0.29 -0.02,-2.27 0.27,-2.59 0.36,-4.05 1.56,-6.74 1.57,-3.46 2.13,-3.51 3.87,-5.77l2.54 -2.2c3.66,-2.48 6.68,-3.77 11.7,-3.77l0 -5.94c0,-0.5 -0.63,-1.18 -0.96,-1.18 -1.86,0 -3.99,0.37 -5.54,0.75 -2.14,0.53 -2.85,0.88 -4.77,1.67 -0.79,0.33 -1.39,0.71 -2.11,1.1 -1.93,1.07 -3.92,2.62 -5.46,4.16 -1.12,1.09 -2.09,2.14 -2.98,3.44 -2.75,4.03 -4.98,8.93 -4.98,14.26l0 0 0 0 0 0 0 0zm34.53 -31.32l0 14.36c0,0.39 0.25,0.34 0.59,0.48 1.24,0.54 2.47,1.37 3.55,2.17 1.76,1.3 3.23,2.86 4.46,4.67 0.38,0.58 0.67,1.34 1.04,1.34l13.58 0c1.04,0 1.08,-0.94 1.08,-1.54 0,-2.17 -0.67,-5.22 -1.43,-7.12 -1.4,-3.47 -2.88,-6.01 -5.57,-8.69 -4.12,-4.1 -10.14,-7.08 -16.11,-7.08 -0.78,0 -1.19,0.63 -1.19,1.41l0 0zm11.91 31.09c0,3.46 -0.02,5.47 -1.36,8.73 -0.25,0.63 -0.07,0.59 0.66,1.57l3.39 4.33c0.38,0.49 0.67,1.13 1.47,1.13 0.93,0 3.18,-2.62 3.8,-3.45l1.75 -2.64c1.18,-1.98 2.68,-6.01 2.68,-9.09 0,-1.34 -1.5,-1.18 -2.15,-1.18l-10.36 0c0.06,0.27 0.12,0.27 0.12,0.6l0 0 0 0 0 0 0 0z"/>
  <path class="fil1" d="M78.96 24.94c4.73,0 7.09,2.34 7.09,7.03 0,4.69 -2.36,7.03 -7.09,7.03l-7.98 0 0 10.54 -6.18 0 -0.02 -24.6 14.18 0zm-7.98 10.54l4.44 0c2.95,0 4.43,-1.17 4.43,-3.51 0,-2.34 -1.48,-3.52 -4.43,-3.52l-4.44 0 0 7.03z"/>
  <path id="_1" class="fil1" d="M102.89 24.94c4.72,0 7.09,2.34 7.09,7.03 0,2.35 -0.6,4.12 -1.79,5.29 1.19,1.17 1.79,2.93 1.79,5.29l0 6.97 -6.21 0.02 0 -6.99c0,-2.35 -1.47,-3.52 -4.43,-3.52l-4.43 0 0 10.51 -6.18 0 -0.02 -24.6 14.18 0zm-7.98 10.54l4.43 0c2.96,0 4.43,-1.17 4.43,-3.51 0,-2.34 -1.47,-3.52 -4.43,-3.52l-4.43 0 0 7.03z"/>
  <path id="_2" class="fil1" d="M125.06 28.45c-4.14,0 -6.21,2.93 -6.21,8.79 0,5.86 2.07,8.78 6.21,8.78 4.13,0 6.2,-2.92 6.2,-8.78 0,-5.86 -2.07,-8.79 -6.2,-8.79zm1.77 -3.51c7.09,0 10.63,4.1 10.63,12.3 0,8.2 -3.54,12.3 -10.63,12.3l-3.54 0c-7.09,0 -10.65,-4.1 -10.66,-12.3 0.01,-8.2 3.57,-12.3 10.66,-12.3l3.54 0z"/>
  <path id="_3" class="fil1" d="M146.3 39l0 10.54 -6.2 0 0 -12.3c0,-8.2 3.55,-12.3 10.64,-12.3l10.63 0 0 3.51 -8.86 0c-3.7,0 -5.74,2.35 -6.13,7.03l13.22 0 0 3.52 -13.3 0z"/>
  <polygon id="_4" class="fil1" points="170.23,24.94 170.23,49.54 164.04,49.54 164.03,24.94 "/>
  <path id="_5" class="fil1" d="M179.09 49.54l-6.18 0 -0.02 -24.6 13.29 0c7.09,0 10.63,4.1 10.63,12.3l0 12.3 -6.2 0 0 -12.3c0,-5.86 -2.07,-8.79 -6.2,-8.79l-5.32 0 0 21.09z"/>
  <path id="_6" class="fil1" d="M217.2 39l0 -10.55 -5.32 0c-4.14,0 -6.2,2.93 -6.2,8.79l0 1.76 11.52 0zm-11.52 3.51l0 7.03 -6.21 0 0 -12.3c0,-8.2 3.55,-12.3 10.64,-12.3l13.29 0 0 24.6 -6.2 0 0 -7.03 -11.52 0z"/>
  <path id="_7" class="fil1" d="M232.26 49.54l-6.18 0 -0.02 -24.6 13.29 0c7.09,0 10.63,4.1 10.63,12.3l0 12.3 -6.2 0 0 -12.3c0,-5.86 -2.07,-8.79 -6.2,-8.79l-5.32 0 0 21.09z"/>
  <path id="_8" class="fil1" d="M273.92 28.45l-8.87 0c-4.14,0 -6.2,2.93 -6.2,8.79 0,5.86 2.06,8.78 6.2,8.78l8.87 0 0 3.52 -10.64 0c-7.09,0 -10.63,-4.1 -10.63,-12.3 0,-8.2 3.54,-12.3 10.63,-12.3l10.64 0 0 3.51z"/>
  <path id="_9" class="fil1" d="M282.84 39c0.4,4.68 2.44,7.02 6.14,7.02l8.86 0 0 3.52 -10.63 0c-7.09,0 -10.64,-4.1 -10.64,-12.3 0,-8.2 3.55,-12.3 10.64,-12.3l10.63 0 0 3.51 -8.86 0c-3.7,0 -5.74,2.35 -6.14,7.03l13.23 0 0 3.52 -13.23 0z"/>
 </g>
</svg>
